<svg id="katman_1" data-name="katman 1" xmlns="http://www.w3.org/2000/svg" viewBox="0 0 506 170.81"><path d="M86.67,68.48c-3.23-9.79-6.45-19.12-15.61-24.78-2.15-1.32-2.57-2.86-1.58-4.83S72.87,35.8,74.74,37a22.29,22.29,0,0,1,6,5.21,99.54,99.54,0,0,1,5.74,9.89c.2.33.33.69.65,1.37a27.19,27.19,0,0,1,5.46-12c4.83-6,11.38-8.92,18.71-10.25a68.2,68.2,0,0,1,9.78-.76c2.3-.08,2.69.44,2.81,2.72.8,13.61-6.32,24.37-19.62,29.38a72.36,72.36,0,0,1-8.91,2.53c-2.45.59-2.48.47-2.11,3.49,1.65-.58,3.28-1.08,4.84-1.69,4.41-1.82,8.78-3.77,13.59-4.22,14-1.23,24.44,4.79,31.9,16.37a40.18,40.18,0,0,1,6,20.5c.75,18.2-5.95,33.79-17.13,47.7-4.78,6-10.36,11-17.42,14.28-6.5,3-13.06,3.43-19.75.68a12.79,12.79,0,0,0-10.11-.29c-9.32,4-17.85,2.06-25.93-3.26s-14-12.53-18.91-20.7c-6.87-11.51-10.94-23.83-10.63-37.34C30,90.84,32.84,82,39.19,74.37,49.1,62.58,64,59.24,78,65.59c2.22,1,4.55,1.77,6.83,2.61A10.57,10.57,0,0,0,86.67,68.48Zm54.62,34.76c-.22-8.07-1.52-13.89-4.57-19.24-4.63-8.11-11.51-12.72-21-13.24-5-.28-9.45,1.57-13.89,3.55-5.23,2.34-10.75,3.49-16.39,2.28a61.7,61.7,0,0,1-11.33-3.68A23.86,23.86,0,0,0,46.3,79.12c-5.25,6-7.58,13.15-8,21a55.39,55.39,0,0,0,5.06,25c4.49,10.28,10.75,19.29,19.81,26.08,5.37,4,11.47,5.71,18,3.22a23.72,23.72,0,0,1,16.94-.11,19.59,19.59,0,0,0,7,1.08c5.65-.19,10.21-3,14.27-6.72a68.92,68.92,0,0,0,13.27-16.56C138.24,122.6,141.31,112.38,141.29,103.24Z" transform="translate(-3.07 -15.01)"/><path d="M168.19,24.15H136.76c-3.08,0-5-1.81-5-4.61s1.86-4.48,5.05-4.48c10.8,0,21.6.1,32.4-.05,5.77-.08,8.52,3.44,8.4,8.46-.19,9.19-.05,18.38-.05,27.55a4.21,4.21,0,0,1-2.39,4.07,4.84,4.84,0,0,1-5.23-.37c-1.48-1-1.79-2.54-1.79-4.25,0-8,0-16,0-24Z" transform="translate(-3.07 -15.01)"/><path d="M168.27,176.6V149.38a4.29,4.29,0,0,1,4.74-4.6c2.9.06,4.55,1.73,4.55,4.6v28.46a7.53,7.53,0,0,1-8,8H137.21c-3.22,0-5.06-1.61-5.13-4.4-.08-2.95,1.68-4.74,5-4.76,9.67-.07,19.35-.05,29-.06Z" transform="translate(-3.07 -15.01)"/><path d="M12.16,176.61H27.09c5.49,0,11,0,16.47,0,2.82,0,4.56,1.61,4.75,4.08a4.45,4.45,0,0,1-4.52,5.06q-16.82.08-33.64,0a6.93,6.93,0,0,1-7-6.79c-.12-10.14-.1-20.28-.05-30.42,0-2.31,1.78-3.73,4.33-3.81a4.25,4.25,0,0,1,4.64,3.56,13.33,13.33,0,0,1,.06,1.79V176.6Z" transform="translate(-3.07 -15.01)"/><path d="M12.16,24.15V51c0,2.93-1.71,4.69-4.46,4.7a4.32,4.32,0,0,1-4.6-4.59q-.06-14.51,0-29a6.69,6.69,0,0,1,7-7c11.34-.07,22.69-.05,34,0a4.15,4.15,0,0,1,4.29,4s0,.07,0,.11A4.32,4.32,0,0,1,44.64,24a16.44,16.44,0,0,1-2.53.13H12.16Z" transform="translate(-3.07 -15.01)"/><path d="M240.22,85.06c-4.56,0-8.83-.06-13.08,0-1.68,0-2.36-.48-2.24-2.18a52.45,52.45,0,0,0,0-5.32c-.05-1.41.46-2.08,1.95-2.08q12,0,24,0c1.78,0,2.07.92,2.13,2.45.59,16.19-10.36,28.33-26.89,29.85a29.88,29.88,0,0,1-30.18-18.23c-5.4-12.47-2.46-26.6,7.18-35.25,11.35-10.18,33.78-10.49,44.23,4.58.54.78,1,1.61,1.68,2.71-3.06,1.45-5.86,2.81-8.75,3.93-.52.19-1.65-.62-2.18-1.23-5.13-5.59-11.51-7.33-18.7-5.67-8.39,1.93-14,10.17-13.57,19.62a26.91,26.91,0,0,0,1.56,8A16.06,16.06,0,0,0,222.7,97.08c8,.11,14.09-3.63,17-10.43C239.87,86.21,240,85.75,240.22,85.06Z" transform="translate(-3.07 -15.01)"/><path d="M299.3,107.14c-2.84,0-5.65.08-8.45-.06a2.09,2.09,0,0,1-1.4-1.4,18.05,18.05,0,0,1-.06-3.6c-6.38,6.54-13.81,6.62-21.48,4.53a11.16,11.16,0,0,1-8.58-10.28c-.54-5.58,1.53-10.21,6.61-12.63a32.56,32.56,0,0,1,10.18-2.5c4-.41,8-.09,12-.09.53-5-1.29-7.51-5.81-8.47-4.67-1-7.83.24-10.32,4a2.18,2.18,0,0,1-1.27.85,9.93,9.93,0,0,1-2.18.06h-7.26c-.45-4.08.89-7.38,3.8-9.56a24.67,24.67,0,0,1,8.33-4.07,26.38,26.38,0,0,1,15,.69c6.42,2.08,10.45,6.38,10.72,13.12C299.54,87.31,299.3,96.91,299.3,107.14ZM288.3,89c-3.7,0-7.22-.07-10.74,0a10.9,10.9,0,0,0-3.51.82,4.5,4.5,0,0,0-3.19,4.36c0,2.18,1.28,3.63,3.4,4.44,7.36,2.69,14-1.83,14-9.66Z" transform="translate(-3.07 -15.01)"/><path d="M436.49,63.17c13.18,0,22.74,9.66,22.68,22.77-.05,12.61-10.12,22.19-23.25,22.11C423,108,412.83,98.13,412.79,85.66,412.78,72.85,423,63.12,436.49,63.17ZM448.11,85.5C448.07,78,443.36,73,436.3,73s-12,5.14-12,12.64c0,7.27,5,12.41,12,12.41s11.82-5.23,11.78-12.55Z" transform="translate(-3.07 -15.01)"/><path d="M341.3,76.55c-2.9,0-5.88,0-8.83,0-.44,0-1-.73-1.27-1.19-2.13-3.21-8.39-4.26-11.49-1.9-2.31,1.77-1.86,4.75,1.15,5.82a72.38,72.38,0,0,0,8.21,1.86c2.11.49,4.25.91,6.31,1.57,4.29,1.4,7,4.3,7.48,8.86.53,5-.26,9.59-4.76,12.65-5.09,3.44-10.84,4-16.71,3.28a32.28,32.28,0,0,1-7.67-2c-4.19-1.61-6.33-5-7.27-9.28-.35-1.53.16-2,1.69-2,2.49.08,5-.09,7.49.08a2.73,2.73,0,0,1,2.05,1.41c1.37,4.67,10.73,4.81,13.33,2.07a3.81,3.81,0,0,0-1.73-6.49c-2.69-.77-5.56-.87-8.29-1.52a39,39,0,0,1-7.58-2.44c-4.53-2.11-6.21-6-6.1-10.89s1.89-8.87,6.58-10.9a25.83,25.83,0,0,1,21.55.16C339.3,67.43,341.7,72.06,341.3,76.55Z" transform="translate(-3.07 -15.01)"/><path d="M364.69,64.06c3.63,0,6.9.08,10.17,0,1.85,0,2.7.49,2.47,2.48-.25,2.18.48,5-.66,6.27s-4,.63-6.17.78c-1.83.13-3.68.17-5.38.25,0,6.54-.31,12.85.11,19.15.25,3.82,2.25,5,6.06,5.09,5.59.13,5.43.14,5.64,5.81.11,2.62-.72,3.77-3.26,3.63-3.92-.25-7.92-.17-11.73-1-5-1-8.07-5.26-8.23-10.63-.19-6-.14-12.09-.19-18.17v-4c-2,0-3.73-.06-5.47,0-1.53.08-2.18-.45-2.13-2.07.1-2.4,0-4.81,0-7.44h7.58c.15-3.31.42-6.42.38-9.52,0-2.31,1-2.91,3.07-2.7a42.82,42.82,0,0,0,5.55.3c1.77,0,2.18.82,2.18,2.36C364.63,57.73,364.69,60.78,364.69,64.06Z" transform="translate(-3.07 -15.01)"/><path d="M395.21,64.19v8.63c3.84-8,7.83-10.17,15.94-8.95,0,2.91.07,5.82-.08,8.78,0,.44-1,1.07-1.65,1.2-1.34.28-2.73.22-4.08.4-6.25.85-9.77,4.78-9.86,11.09s-.15,12.57-.08,18.89c0,2.26-.66,3.22-3,3a55.33,55.33,0,0,0-6-.08c-1.46,0-2.18-.43-2.18-2.07,0-13,0-26,.08-38.93a2.44,2.44,0,0,1,1.46-1.84C388.74,64.06,391.79,64.19,395.21,64.19Z" transform="translate(-3.07 -15.01)"/><path d="M269.61,118.4c4.18,0,8.09-.07,12,.09.54,0,1.23,1.12,1.46,1.85q7.26,20.24,14.41,40.48c.19.52.4,1,.72,1.89,3.08-8.63,6-16.92,9-25.21,2.07-5.75,4.09-11.53,6.27-17.24a3.38,3.38,0,0,1,2.25-1.92c3.52-.21,7-.09,11-.09-.36,1.31-.51,2.13-.81,2.91-6.87,17.53-13.81,35.05-20.57,52.6-.73,1.83-1.61,2.49-3.52,2.38-2.82-.16-5.66.07-8.47-.1a3.1,3.1,0,0,1-2.3-1.46q-10.72-27.42-21.27-54.92A8.72,8.72,0,0,1,269.61,118.4Z" transform="translate(-3.07 -15.01)"/><path d="M461.22,155c0,12.8-9.71,22.29-22.63,22.29-13.38,0-22.89-9.4-22.85-22.53,0-12.76,9.82-22.2,23-22.19C451.57,132.55,461.26,142.21,461.22,155Zm-11.07-.24c0-7.27-4.64-12.08-11.63-12.08s-11.77,4.91-11.78,12.19c0,7.45,4.8,12.58,11.76,12.56S450.22,162.23,450.15,154.73Z" transform="translate(-3.07 -15.01)"/><path d="M479.21,139.47c5.08-6.46,11.25-8.4,18.77-6.05,6.64,2.08,10.71,7.38,10.95,15.13.25,8.55.11,17.1,0,25.65,0,.61-.8,1.72-1.26,1.74-3.28.15-6.54.08-10.18.08V151.9c-.2-6.34-3.1-9.65-8.41-9.62-5.57,0-9.4,3.78-9.53,9.7-.16,7-.08,14-.11,21.08v3c-3.49,0-6.76.11-10-.12-.5,0-1.29-1.64-1.3-2.52-.09-11.45-.07-22.91-.08-34.35,0-5.54,0-5.54,5.58-5.53C478.79,133.51,478.79,133.51,479.21,139.47Z" transform="translate(-3.07 -15.01)"/><path d="M387.12,145.74c-3.07,0-5.81.08-8.53-.06a2.52,2.52,0,0,1-1.72-1.26c-2-3.85-9.35-3.53-11.52-1.66s-1.64,4.71,1.23,5.7,5.81,1.3,8.67,2q3.06.66,6.05,1.62c4.15,1.46,6.72,4.36,7.2,8.83.53,5.09-.4,9.67-5,12.79-6.54,4.45-19.81,4.28-26.26-.37-3.22-2.32-4.6-5.61-5-9.8,3.54,0,6.82,0,10.1.05.41,0,1,.73,1.17,1.18,1.57,4.88,10.51,5,13.24,2.26,2.14-2.12,1.63-5.48-1.28-6.41-2.5-.79-5.22-.9-7.79-1.51a50.54,50.54,0,0,1-8.28-2.47c-3.94-1.73-5.93-5-6.12-9.37-.21-4.8.77-9.22,5.29-11.63a24.21,24.21,0,0,1,23.18-.23C385.67,137.34,387.1,141.11,387.12,145.74Z" transform="translate(-3.07 -15.01)"/><path d="M333,154.77c0-6.28.07-12.57,0-18.89,0-1.91.53-2.58,2.49-2.45a68.1,68.1,0,0,0,7,0c1.45,0,2,.57,2,2q0,19.23.08,38.44c0,1.5-.35,2.24-2,2.18-2.42-.11-4.84-.12-7.27,0-1.88.1-2.32-.72-2.3-2.44.08-6.28,0-12.57,0-18.89Z" transform="translate(-3.07 -15.01)"/><path d="M408.38,154.73c0,6.37-.05,12.74,0,19.1,0,1.65-.45,2.34-2.18,2.24-2.41-.12-4.84-.08-7.27,0-1.41,0-2.08-.45-2.08-1.92q.06-19.47.07-38.92c0-1.38.6-1.8,1.92-1.75,2.5.08,5,.1,7.49,0,1.67-.07,2,.69,2,2.18-.06,6.36,0,12.73,0,19.09Z" transform="translate(-3.07 -15.01)"/><path d="M345.09,121.45c0,3.85-2.49,6.4-6.31,6.37a6.05,6.05,0,0,1-6.23-5.89,2.41,2.41,0,0,1,0-.38,6.18,6.18,0,0,1,5.93-6.43h.19a6.11,6.11,0,0,1,6.42,5.79C345.09,121.09,345.1,121.27,345.09,121.45Z" transform="translate(-3.07 -15.01)"/><path d="M409,121.58a5.83,5.83,0,0,1-6.16,6.22,6.36,6.36,0,0,1-.52-12.69h.38a6.16,6.16,0,0,1,6.3,6A3.53,3.53,0,0,1,409,121.58Z" transform="translate(-3.07 -15.01)"/></svg>